<svg width="114" height="40" viewBox="0 0 114 40" fill="none" xmlns="http://www.w3.org/2000/svg">
<path d="M52.7707 29.6556H49.6991L49.7268 19.7522L49.8095 17.5176L48.3425 19.2005L43.2788 24.5522L37.8547 19.5591L36.2775 17.6832L36.3327 20.3037V29.6556H33.178V9.8486L43.2788 20.0556L52.7707 9.8486V29.6556Z" fill="#ED72A9"/>
<path d="M69.4852 25.0487C68.1569 28.2762 65.4448 29.8762 62.6227 29.8762C58.6927 29.8762 55.5383 26.6487 55.5383 22.7592C55.5383 18.8418 58.6927 15.6143 62.6227 15.6143C66.5245 15.6143 69.6793 18.8418 69.6793 22.7592C69.6793 23.0067 69.6793 23.3092 69.6516 23.5315H58.25C58.6086 25.6555 60.3811 27.3107 62.6227 27.3107C64.3383 27.3107 65.8326 26.4831 66.5522 25.0487H69.4852ZM58.3332 21.4626H66.94C66.8573 21.2425 66.7191 21.0225 66.6363 20.8005C65.9167 19.2833 64.4225 18.1522 62.6241 18.1522C60.7421 18.1522 59.2201 19.3383 58.5282 20.9383C58.4436 21.1314 58.3604 21.297 58.3332 21.4626Z" fill="#ED72A9"/>
<path d="M78.0368 16.028C79.531 16.028 80.9425 16.4956 82.0495 17.2693C82.2976 17.4618 82.5477 17.7094 82.7968 17.9038V10.3453H85.5931V29.5717H82.7978V27.9455C82.55 28.1889 82.2812 28.4104 81.9949 28.6076C80.8297 29.4023 79.4497 29.8256 78.0377 29.8214C74.2464 29.8214 71.1475 26.7317 71.1475 22.8972C71.1461 19.0902 74.2455 16.028 78.0368 16.028ZM78.0368 27.3382C80.4998 27.3382 82.7968 25.3796 82.7968 22.8969C82.7968 20.4693 80.4998 18.5106 78.0368 18.5106C75.5733 18.5106 73.7195 20.4693 73.7195 22.8969C73.7195 25.3796 75.5738 27.3382 78.0368 27.3382Z" fill="#ED72A9"/>
<path d="M108.809 20.0278C108.809 25.628 104.852 30.0968 99.0143 30.0968C93.5073 30.0968 89.0237 25.628 89.0237 20.0278C89.0237 14.4833 93.5073 9.90393 99.0143 9.90393C103.248 9.90393 105.518 11.6695 107.316 13.4348L104.908 15.3107C103.69 14.1797 101.864 12.9108 99.0133 12.9108C95.222 12.9108 92.1776 16.0833 92.1776 20.0278C92.1776 24.0005 95.222 27.2004 99.0133 27.2004C102.002 27.2004 104.603 25.4074 105.434 22.4005H100.59V19.697H108.809V20.0278Z" fill="#ED72A9"/>
<path d="M27.4786 15.1448C27.3255 17.5353 26.418 19.8162 24.8861 21.6616C23.3542 23.507 21.2761 24.8223 18.9491 25.4195C18.8004 25.4586 18.6689 25.5459 18.5753 25.6675C18.4817 25.7892 18.4313 25.9384 18.432 26.0917V28.1989C18.4319 28.2898 18.4498 28.3798 18.4846 28.4638C18.5194 28.5478 18.5704 28.6242 18.6349 28.6885C18.6993 28.7528 18.7758 28.8039 18.86 28.8387C18.9443 28.8735 19.0345 28.8915 19.1257 28.8915H21.106C21.2901 28.8914 21.4667 28.9642 21.597 29.0939C21.7273 29.2236 21.8006 29.3995 21.8008 29.583V32.8493C21.8006 33.0328 21.7273 33.2087 21.597 33.3384C21.4667 33.468 21.2901 33.5408 21.106 33.5407H19.126C19.0348 33.5407 18.9445 33.5585 18.8603 33.5933C18.7761 33.628 18.6996 33.679 18.6351 33.7432C18.5707 33.8074 18.5195 33.8837 18.4847 33.9677C18.4498 34.0517 18.4319 34.1416 18.432 34.2325V36.2074C18.4316 36.3907 18.3584 36.5664 18.2283 36.6961C18.0983 36.8257 17.922 36.8986 17.738 36.8989H14.462C14.3708 36.8989 14.2805 36.8811 14.1962 36.8464C14.112 36.8117 14.0354 36.7608 13.9709 36.6966C13.9064 36.6324 13.8552 36.5561 13.8202 36.4722C13.7853 36.3883 13.7672 36.2983 13.7672 36.2074V34.2325C13.7672 34.1417 13.7493 34.0518 13.7145 33.9678C13.6796 33.8839 13.6285 33.8076 13.5641 33.7434C13.4997 33.6792 13.4232 33.6282 13.339 33.5934C13.2549 33.5586 13.1646 33.5407 13.0735 33.5407H11.0923C11.0012 33.5408 10.9109 33.523 10.8266 33.4883C10.7424 33.4536 10.6658 33.4026 10.6013 33.3384C10.5367 33.2742 10.4855 33.198 10.4506 33.114C10.4157 33.0301 10.3976 32.9401 10.3976 32.8493V29.583C10.3976 29.4921 10.4157 29.4021 10.4506 29.3182C10.4855 29.2343 10.5367 29.158 10.6013 29.0938C10.6658 29.0296 10.7424 28.9787 10.8266 28.944C10.9109 28.9092 11.0012 28.8914 11.0923 28.8915H13.0735C13.1647 28.8914 13.2549 28.8735 13.3391 28.8386C13.4233 28.8038 13.4998 28.7527 13.5642 28.6884C13.6286 28.6241 13.6797 28.5478 13.7145 28.4638C13.7494 28.3798 13.7672 28.2898 13.7672 28.1989V26.089C13.7677 25.9586 13.7311 25.8307 13.6615 25.7203C13.5919 25.61 13.4923 25.5216 13.3742 25.4654C13.3354 25.4468 13.2949 25.4321 13.2531 25.4214C7.49452 23.9455 3.49466 18.0986 5.02604 11.6393C6.00616 7.50628 9.29137 4.27824 13.4471 3.34443C15.6957 2.83971 17.8672 2.99786 19.8034 3.65965C21.2101 4.14173 22.5086 4.89363 23.6255 5.873C23.6965 5.93561 23.7539 6.01204 23.7941 6.09758C23.8344 6.18318 23.8565 6.27601 23.8593 6.37048C23.8621 6.46491 23.8455 6.55892 23.8104 6.64672C23.7753 6.73448 23.7225 6.81415 23.6553 6.8808L21.0668 9.46191C20.9467 9.58327 20.7855 9.65575 20.6147 9.66529C20.4439 9.67488 20.2756 9.62083 20.1425 9.51361C19.8753 9.29429 19.5906 9.09697 19.2912 8.92362C18.3335 8.36875 17.2463 8.07469 16.1385 8.07098C16.1261 8.07098 16.1126 8.07098 16.1002 8.07098C11.9612 8.07098 8.74472 12.0114 10.0187 16.3322C10.4474 17.7825 11.3993 19.0234 12.691 19.8158C13.1565 20.1031 13.6587 20.3263 14.1841 20.4795C14.8581 20.678 15.559 20.7708 16.2616 20.7546C17.6111 20.7226 18.915 20.2615 19.983 19.4384C19.9877 19.4346 19.9927 19.4318 19.9974 19.428C20.5125 19.0305 20.2214 18.2048 19.5688 18.2048H18.4304C18.2464 18.2048 18.0699 18.1318 17.9398 18.0022C17.8097 17.8726 17.7365 17.6967 17.7364 17.5133V15.1036C17.7368 14.9203 17.81 14.7447 17.9401 14.6152C18.0702 14.4857 18.2465 14.413 18.4304 14.4129H26.7849C26.8795 14.4127 26.9732 14.4319 27.0601 14.4691C27.147 14.5064 27.2253 14.5609 27.2903 14.6295C27.3553 14.6981 27.4055 14.7791 27.4379 14.8678C27.4703 14.9564 27.4841 15.0507 27.4786 15.1448Z" fill="#E72887"/>
<path d="M27.4786 15.1448C27.3254 17.5352 26.418 19.8162 24.8861 21.6616C23.3542 23.507 21.2761 24.8223 18.9491 25.4195C18.8004 25.4586 18.6689 25.5458 18.5753 25.6675C18.4817 25.7892 18.4313 25.9384 18.432 26.0917V28.1989C18.4319 28.2898 18.4498 28.3798 18.4846 28.4638C18.5194 28.5478 18.5705 28.6242 18.6349 28.6885C18.6993 28.7528 18.7758 28.8039 18.86 28.8387C18.9442 28.8735 19.0345 28.8915 19.1257 28.8915H21.106C21.2901 28.8914 21.4667 28.9642 21.597 29.0939C21.7273 29.2235 21.8006 29.3995 21.8008 29.583V32.8493C21.8006 33.0328 21.7273 33.2087 21.597 33.3384C21.4667 33.468 21.2901 33.5408 21.106 33.5407H19.126C19.0348 33.5407 18.9446 33.5585 18.8603 33.5932C18.7761 33.628 18.6996 33.679 18.6351 33.7432C18.5707 33.8074 18.5196 33.8837 18.4847 33.9677C18.4499 34.0517 18.4319 34.1416 18.432 34.2325V34.8926C16.3246 32.5628 14.735 29.8153 13.7672 26.8302V26.0876C13.7677 25.9572 13.7311 25.8294 13.6615 25.719C13.5919 25.6086 13.4923 25.5201 13.3743 25.464C12.9184 23.6687 12.6885 21.8237 12.6899 19.9717C12.6899 19.9181 12.6899 19.8656 12.6899 19.8119C13.1554 20.0992 13.6576 20.3225 14.183 20.4756C14.857 20.6742 15.5579 20.767 16.2605 20.7507C17.61 20.7188 18.9139 20.2576 19.9819 19.4345C19.9866 19.4307 19.9916 19.428 19.9962 19.4241C20.5114 19.0266 20.2203 18.2009 19.5677 18.2009H18.4303C18.2464 18.2009 18.07 18.128 17.9398 17.9983C17.8097 17.8687 17.7365 17.6928 17.7364 17.5095V15.1035C17.7368 14.9203 17.81 14.7447 17.9401 14.6152C18.0702 14.4857 18.2465 14.413 18.4303 14.4129H26.7849C26.8795 14.4127 26.9731 14.4319 27.0601 14.4691C27.147 14.5064 27.2254 14.5609 27.2903 14.6295C27.3553 14.698 27.4055 14.7791 27.4379 14.8678C27.4703 14.9564 27.4841 15.0507 27.4786 15.1448Z" fill="#ED72A9"/>
</svg>
