<svg width="18" height="18" viewBox="0 0 18 18" fill="none" xmlns="http://www.w3.org/2000/svg">
<path d="M11.0214 9.00003L16.6838 3.35082L16.6839 3.35074C16.9537 3.08091 17.1053 2.71495 17.1053 2.33336C17.1053 1.95177 16.9537 1.58581 16.6839 1.31598C16.4141 1.04616 16.0481 0.894572 15.6665 0.894572C15.2849 0.894572 14.919 1.04616 14.6492 1.31598L14.6491 1.31607L8.99986 6.97844L3.35065 1.31607L3.35057 1.31598C3.08074 1.04616 2.71478 0.894572 2.33319 0.894572C1.9516 0.894572 1.58564 1.04616 1.31581 1.31598C1.04599 1.58581 0.894402 1.95177 0.894402 2.33336C0.894402 2.71495 1.04599 3.08091 1.31581 3.35074L1.3159 3.35082L6.97827 9.00003L1.3161 14.649C1.31606 14.6491 1.31603 14.6491 1.31599 14.6491C1.1817 14.7824 1.07511 14.9409 1.00236 15.1155C0.929589 15.2901 0.892124 15.4775 0.892124 15.6667C0.892124 15.8559 0.929589 16.0433 1.00236 16.2179C1.07507 16.3925 1.1816 16.5509 1.31581 16.6841C1.449 16.8183 1.60742 16.9248 1.78196 16.9975C1.95663 17.0703 2.14397 17.1078 2.33319 17.1078C2.52241 17.1078 2.70975 17.0703 2.88442 16.9975C3.05906 16.9248 3.21758 16.8181 3.35082 16.6838C3.35083 16.6838 3.35084 16.6838 3.35086 16.6838L8.99986 11.0216L14.6489 16.6838C14.6489 16.6838 14.6489 16.6838 14.6489 16.6839C14.7822 16.8182 14.9407 16.9248 15.1153 16.9975C15.29 17.0703 15.4773 17.1078 15.6665 17.1078C15.8557 17.1078 16.0431 17.0703 16.2178 16.9975C16.3923 16.9248 16.5507 16.8183 16.6839 16.6841C16.8181 16.5509 16.9246 16.3925 16.9974 16.2179C17.0701 16.0433 17.1076 15.8559 17.1076 15.6667C17.1076 15.4775 17.0701 15.2901 16.9974 15.1155C16.9246 14.9408 16.818 14.7823 16.6837 14.6491C16.6837 14.6491 16.6836 14.6491 16.6836 14.649L11.0214 9.00003Z" fill="#767676" stroke="#767676" stroke-width="0.2"/>
</svg>
