<svg width="28" height="29" viewBox="0 0 28 29" fill="none" xmlns="http://www.w3.org/2000/svg">
<path d="M24.4836 5.19373H3.51632C1.88463 5.19373 0.500244 6.39654 0.500244 8.12593V11.5646V20.874C0.500244 22.6034 1.88463 23.8062 3.51632 23.8062H24.4836C26.1153 23.8062 27.4997 22.6034 27.4997 20.874V11.5646V8.12593C27.4997 6.39654 26.1153 5.19373 24.4836 5.19373Z" fill="#C4C4C4" stroke="#E1E3E6"/>
<path d="M1.00024 17.4354V20.874C1.00024 22.2998 2.13248 23.3062 3.51632 23.3062H24.4836C25.8674 23.3062 26.9997 22.2998 26.9997 20.874V17.4354H1.00024Z" fill="#EC2227"/>
<path d="M24.4836 5.69373H3.51632C2.13248 5.69373 1.00024 6.70016 1.00024 8.12593V11.5646H26.9997V8.12593C26.9997 6.70016 25.8674 5.69373 24.4836 5.69373Z" fill="#F0F3F4"/>
<path d="M26.9997 11.5646H1.00024V17.4354H26.9997V11.5646Z" fill="#005EA5"/>
</svg>
