<svg width="54" height="73" viewBox="0 0 54 73" fill="none" xmlns="http://www.w3.org/2000/svg">
<path d="M24.1415 0.708176C22.5946 1.02068 21.6258 1.36443 20.2665 2.06755C15.4852 4.52068 12.8133 9.92693 13.1571 16.4269C13.454 21.6926 15.1727 26.0519 18.9227 30.9738C19.4227 31.6457 19.9852 32.4894 20.1415 32.8644C20.6883 34.0519 20.4696 35.6301 19.6258 36.5519C19.0946 37.1301 18.329 37.5519 16.5477 38.2863C13.4852 39.5363 8.51647 42.1926 5.92272 43.9738C4.29772 45.0832 2.50085 46.9113 1.9071 48.0676C1.18835 49.4113 0.875845 50.8957 0.969595 52.4269C1.07897 54.3332 1.51647 55.3176 2.86022 56.6457C4.54772 58.3332 6.84459 59.4113 10.4852 60.2238C13.0946 60.8176 12.9071 60.8801 12.9852 59.2551C13.0321 58.1301 13.1258 57.7551 13.5008 57.0519C14.5008 55.2238 16.079 54.3801 18.4852 54.3801H19.954L20.0008 52.6926C20.0633 51.2551 20.1258 50.8957 20.5008 50.1301C21.0165 49.0832 21.9071 48.2394 23.0477 47.7082C23.8758 47.3332 23.954 47.3332 27.3602 47.3801C30.6415 47.4269 30.8758 47.4426 31.5165 47.7863C32.5477 48.3332 33.3758 49.1613 33.8446 50.1301C34.2196 50.8957 34.2821 51.2551 34.3446 52.6926L34.3915 54.3801H35.8602C38.2665 54.3801 39.8446 55.2238 40.8446 57.0519C41.2196 57.7551 41.3133 58.1301 41.3602 59.2707L41.4227 60.6301H41.9071C42.6258 60.6301 45.829 59.8801 47.3133 59.3488C49.3758 58.6301 50.4227 58.0051 51.6415 56.8019C52.9383 55.5051 53.2508 54.8019 53.3758 52.8176C53.5633 49.8176 52.7977 47.7863 50.6258 45.6144C49.8915 44.8801 48.7196 43.9113 48.0321 43.4582C46.4383 42.4113 41.6571 40.0519 39.4852 39.2394C35.8602 37.8957 34.329 36.7863 34.1102 35.3644C33.8602 33.6457 34.3915 32.3332 36.579 29.3801C38.7508 26.4269 40.1727 23.2863 40.954 19.6301C41.4227 17.4269 41.4383 13.5519 40.9696 11.4113C40.3446 8.5363 39.2508 6.3488 37.5008 4.48943C35.8602 2.75505 34.1727 1.7238 31.7508 1.00505C30.5477 0.645676 30.0477 0.583176 27.7977 0.536301C26.0008 0.505051 24.8915 0.551926 24.1415 0.708176Z" fill="#E72887"/>
<path d="M24.4385 50.7707C24.2666 50.8488 23.9854 51.0676 23.8135 51.2551C23.5322 51.5676 23.501 51.8801 23.4229 54.6769L23.3447 57.7394L20.2822 57.7863L17.2197 57.8176L16.7666 58.3019C16.3135 58.7707 16.3135 58.8019 16.251 60.8957C16.1885 63.5988 16.2979 64.3019 16.8604 64.8801L17.2979 65.3176H20.3604H23.4229V68.3801V71.4426L23.876 71.8957L24.3291 72.3488H27.1729H30.0166L30.4697 71.8957L30.9229 71.4426V68.3801V65.3176H33.9854H37.0479L37.4854 64.8801C38.0479 64.3019 38.1572 63.5988 38.0947 60.8957C38.0322 58.8019 38.0322 58.7707 37.5791 58.3019L37.126 57.8176L34.0635 57.7863L31.001 57.7394L30.9229 54.6613L30.8447 51.5676L30.4072 51.1457L29.9854 50.7082L27.3604 50.6769C25.9229 50.6613 24.6104 50.6926 24.4385 50.7707Z" fill="#FBC3F4"/>
</svg>
