<svg width="114" height="40" viewBox="0 0 114 40" fill="none" xmlns="http://www.w3.org/2000/svg">
<path d="M52.7707 29.6558H49.6991L49.7268 19.7525L49.8095 17.5179L48.3425 19.2007L43.2788 24.5525L37.8547 19.5594L36.2775 17.6835L36.3327 20.304V29.6558H33.178V9.84888L43.2788 20.0559L52.7707 9.84888V29.6558Z" fill="white"/>
<path d="M69.4852 25.0489C68.1569 28.2764 65.4448 29.8764 62.6227 29.8764C58.6927 29.8764 55.5383 26.6489 55.5383 22.7593C55.5383 18.842 58.6927 15.6145 62.6227 15.6145C66.5245 15.6145 69.6793 18.842 69.6793 22.7593C69.6793 23.0068 69.6793 23.3094 69.6516 23.5317H58.25C58.6086 25.6556 60.3811 27.3109 62.6227 27.3109C64.3383 27.3109 65.8326 26.4833 66.5522 25.0489H69.4852ZM58.3332 21.4627H66.94C66.8573 21.2427 66.7191 21.0226 66.6363 20.8006C65.9167 19.2835 64.4225 18.1524 62.6241 18.1524C60.7421 18.1524 59.2201 19.3385 58.5282 20.9385C58.4436 21.1315 58.3604 21.2971 58.3332 21.4627Z" fill="white"/>
<path d="M78.0368 16.0281C79.531 16.0281 80.9425 16.4957 82.0495 17.2694C82.2976 17.4619 82.5477 17.7095 82.7968 17.904V10.3455H85.5931V29.5718H82.7978V27.9456C82.55 28.189 82.2812 28.4105 81.9949 28.6077C80.8297 29.4024 79.4497 29.8257 78.0377 29.8215C74.2464 29.8215 71.1475 26.7318 71.1475 22.8973C71.1461 19.0903 74.2455 16.0281 78.0368 16.0281ZM78.0368 27.3383C80.4998 27.3383 82.7968 25.3797 82.7968 22.897C82.7968 20.4694 80.4998 18.5107 78.0368 18.5107C75.5733 18.5107 73.7195 20.4694 73.7195 22.897C73.7195 25.3797 75.5738 27.3383 78.0368 27.3383Z" fill="white"/>
<path d="M108.809 20.028C108.809 25.6281 104.852 30.0969 99.0143 30.0969C93.5073 30.0969 89.0237 25.6281 89.0237 20.028C89.0237 14.4834 93.5073 9.90405 99.0143 9.90405C103.248 9.90405 105.518 11.6696 107.316 13.4349L104.908 15.3108C103.69 14.1798 101.864 12.9109 99.0133 12.9109C95.222 12.9109 92.1776 16.0834 92.1776 20.028C92.1776 24.0006 95.222 27.2006 99.0133 27.2006C102.002 27.2006 104.603 25.4075 105.434 22.4006H100.59V19.6971H108.809V20.028Z" fill="white"/>
<path d="M27.4786 15.1449C27.3255 17.5354 26.418 19.8163 24.8861 21.6617C23.3542 23.5071 21.2761 24.8225 18.9491 25.4196C18.8004 25.4587 18.6689 25.546 18.5753 25.6676C18.4817 25.7893 18.4313 25.9385 18.432 26.0918V28.199C18.4319 28.29 18.4498 28.38 18.4846 28.464C18.5194 28.548 18.5704 28.6243 18.6349 28.6886C18.6993 28.7529 18.7758 28.804 18.86 28.8388C18.9443 28.8736 19.0345 28.8916 19.1257 28.8916H21.106C21.2901 28.8915 21.4667 28.9644 21.597 29.094C21.7273 29.2237 21.8006 29.3996 21.8008 29.5831V32.8494C21.8006 33.0329 21.7273 33.2088 21.597 33.3385C21.4667 33.4681 21.2901 33.5409 21.106 33.5409H19.126C19.0348 33.5408 18.9445 33.5587 18.8603 33.5934C18.7761 33.6281 18.6996 33.6791 18.6351 33.7433C18.5707 33.8076 18.5195 33.8838 18.4847 33.9678C18.4498 34.0518 18.4319 34.1417 18.432 34.2327V36.2075C18.4316 36.3909 18.3584 36.5666 18.2283 36.6962C18.0983 36.8258 17.922 36.8987 17.738 36.899H14.462C14.3708 36.8991 14.2805 36.8813 14.1962 36.8466C14.112 36.8118 14.0354 36.7609 13.9709 36.6967C13.9064 36.6325 13.8552 36.5563 13.8202 36.4723C13.7853 36.3884 13.7672 36.2984 13.7672 36.2075V34.2327C13.7672 34.1418 13.7493 34.0519 13.7145 33.9679C13.6796 33.884 13.6285 33.8077 13.5641 33.7435C13.4997 33.6793 13.4232 33.6283 13.339 33.5935C13.2549 33.5588 13.1646 33.5409 13.0735 33.5409H11.0923C11.0012 33.5409 10.9109 33.5231 10.8266 33.4884C10.7424 33.4537 10.6658 33.4028 10.6013 33.3386C10.5367 33.2743 10.4855 33.1981 10.4506 33.1142C10.4157 33.0303 10.3976 32.9402 10.3976 32.8494V29.5831C10.3976 29.4923 10.4157 29.4022 10.4506 29.3183C10.4855 29.2344 10.5367 29.1582 10.6013 29.0939C10.6658 29.0297 10.7424 28.9788 10.8266 28.9441C10.9109 28.9094 11.0012 28.8915 11.0923 28.8916H13.0735C13.1647 28.8915 13.2549 28.8736 13.3391 28.8387C13.4233 28.8039 13.4998 28.7528 13.5642 28.6885C13.6286 28.6242 13.6797 28.5479 13.7145 28.4639C13.7494 28.3799 13.7672 28.2899 13.7672 28.199V26.0891C13.7677 25.9587 13.7311 25.8309 13.6615 25.7205C13.5919 25.6101 13.4923 25.5217 13.3742 25.4656C13.3354 25.4469 13.2949 25.4322 13.2531 25.4216C7.49452 23.9456 3.49466 18.0987 5.02604 11.6394C6.00616 7.5064 9.29137 4.27836 13.4471 3.34455C15.6957 2.83983 17.8672 2.99799 19.8034 3.65977C21.2101 4.14185 22.5086 4.89376 23.6255 5.87312C23.6965 5.93573 23.7539 6.01216 23.7941 6.0977C23.8344 6.1833 23.8565 6.27613 23.8593 6.37061C23.8621 6.46504 23.8455 6.55904 23.8104 6.64685C23.7753 6.7346 23.7225 6.81427 23.6553 6.88092L21.0668 9.46203C20.9467 9.58339 20.7855 9.65587 20.6147 9.66541C20.4439 9.675 20.2756 9.62095 20.1425 9.51373C19.8753 9.29441 19.5906 9.09709 19.2912 8.92374C18.3335 8.36887 17.2463 8.07481 16.1385 8.0711C16.1261 8.0711 16.1126 8.0711 16.1002 8.0711C11.9612 8.0711 8.74472 12.0115 10.0187 16.3323C10.4474 17.7826 11.3993 19.0235 12.691 19.8159C13.1565 20.1032 13.6587 20.3265 14.1841 20.4796C14.8581 20.6782 15.559 20.7709 16.2616 20.7547C17.6111 20.7228 18.915 20.2616 19.983 19.4385C19.9877 19.4347 19.9927 19.4319 19.9974 19.4281C20.5125 19.0306 20.2214 18.2049 19.5688 18.2049H18.4304C18.2464 18.2049 18.0699 18.132 17.9398 18.0023C17.8097 17.8727 17.7365 17.6969 17.7364 17.5135V15.1037C17.7368 14.9205 17.81 14.7448 17.9401 14.6153C18.0702 14.4859 18.2465 14.4131 18.4304 14.413H26.7849C26.8795 14.4129 26.9732 14.432 27.0601 14.4693C27.147 14.5065 27.2253 14.5611 27.2903 14.6296C27.3553 14.6982 27.4055 14.7793 27.4379 14.8679C27.4703 14.9565 27.4841 15.0508 27.4786 15.1449Z" fill="white"/>
<path d="M27.4786 15.145C27.3254 17.5354 26.418 19.8164 24.8861 21.6618C23.3542 23.5072 21.2761 24.8225 18.9491 25.4197C18.8004 25.4588 18.6689 25.5461 18.5753 25.6677C18.4817 25.7894 18.4313 25.9386 18.432 26.0919V28.1991C18.4319 28.29 18.4498 28.38 18.4846 28.464C18.5194 28.548 18.5705 28.6244 18.6349 28.6887C18.6993 28.753 18.7758 28.8041 18.86 28.8389C18.9442 28.8737 19.0345 28.8917 19.1257 28.8917H21.106C21.2901 28.8916 21.4667 28.9644 21.597 29.0941C21.7273 29.2238 21.8006 29.3997 21.8008 29.5832V32.8495C21.8006 33.033 21.7273 33.2089 21.597 33.3386C21.4667 33.4682 21.2901 33.541 21.106 33.5409H19.126C19.0348 33.5409 18.9446 33.5587 18.8603 33.5934C18.7761 33.6282 18.6996 33.6792 18.6351 33.7434C18.5707 33.8076 18.5196 33.8839 18.4847 33.9679C18.4499 34.0519 18.4319 34.1418 18.432 34.2327V34.8929C16.3246 32.563 14.735 29.8155 13.7672 26.8304V26.0878C13.7677 25.9574 13.7311 25.8296 13.6615 25.7192C13.5919 25.6088 13.4923 25.5203 13.3743 25.4642C12.9184 23.6689 12.6885 21.8239 12.6899 19.972C12.6899 19.9183 12.6899 19.8658 12.6899 19.8121C13.1554 20.0994 13.6576 20.3227 14.183 20.4758C14.857 20.6744 15.5579 20.7672 16.2605 20.7509C17.61 20.719 18.9139 20.2578 19.9819 19.4348C19.9866 19.4309 19.9916 19.4282 19.9962 19.4243C20.5114 19.0269 20.2203 18.2011 19.5677 18.2011H18.4303C18.2464 18.2011 18.07 18.1282 17.9398 17.9986C17.8097 17.8689 17.7365 17.693 17.7364 17.5097V15.1038C17.7368 14.9205 17.81 14.7449 17.9401 14.6154C18.0702 14.4859 18.2465 14.4132 18.4303 14.4131H26.7849C26.8795 14.4129 26.9731 14.4321 27.0601 14.4693C27.147 14.5066 27.2254 14.5611 27.2903 14.6297C27.3553 14.6983 27.4055 14.7793 27.4379 14.868C27.4703 14.9566 27.4841 15.0509 27.4786 15.145Z" fill="white"/>
</svg>
